<svg xmlns="http://www.w3.org/2000/svg" width="603.16" height="175.227" viewBox="0 0 603.16 175.227">
  <g id="グループ_1" data-name="グループ 1" transform="translate(-1034.84 386.227)">
    <path id="パス_1" data-name="パス 1" d="M24.492-90.469v77.637h26.6V0H10.84V-90.469ZM65.44-45.645q0-19.1,14-32.812a46.093,46.093,0,0,1,33.516-13.711A45.235,45.235,0,0,1,146.123-78.34,45.207,45.207,0,0,1,160.01-45.117a44.485,44.485,0,0,1-13.945,33.105A46.671,46.671,0,0,1,112.256,1.641q-17.52,0-31.465-12.129Q65.44-23.906,65.44-45.645Zm13.77.176q0,15,10.078,24.668,10.02,9.668,23.145,9.668a32.561,32.561,0,0,0,24.023-9.844,33.317,33.317,0,0,0,9.785-24.258q0-14.473-9.668-24.258a31.917,31.917,0,0,0-23.789-9.844,32.231,32.231,0,0,0-23.848,9.844A32.637,32.637,0,0,0,79.209-45.469ZM233.3-47.109h37.383v2.988a61.747,61.747,0,0,1-2.4,18.047,38.357,38.357,0,0,1-7.91,13.594Q247.774,1.7,228.321,1.7A44.061,44.061,0,0,1,195.8-12.012a45.463,45.463,0,0,1-13.535-33.047,45.354,45.354,0,0,1,13.77-33.4,45.616,45.616,0,0,1,33.516-13.77,45.865,45.865,0,0,1,19.8,4.336q8.789,4.336,17.285,14.063l-9.727,9.316q-11.133-14.824-27.129-14.824a32.41,32.41,0,0,0-24.082,9.9q-9.727,9.727-9.727,24.375,0,15.117,10.84,24.9,10.137,9.082,21.973,9.082a27.28,27.28,0,0,0,18.105-6.8q8.027-6.855,8.965-16.406H233.3Zm59.639,1.465q0-19.1,14-32.812A46.093,46.093,0,0,1,340.46-92.168,45.235,45.235,0,0,1,373.624-78.34a45.207,45.207,0,0,1,13.887,33.223,44.485,44.485,0,0,1-13.945,33.105A46.671,46.671,0,0,1,339.757,1.641q-17.52,0-31.465-12.129Q292.941-23.906,292.941-45.645Zm13.77.176q0,15,10.078,24.668,10.02,9.668,23.145,9.668a32.561,32.561,0,0,0,24.023-9.844,33.317,33.317,0,0,0,9.785-24.258q0-14.473-9.668-24.258a31.917,31.917,0,0,0-23.789-9.844,32.231,32.231,0,0,0-23.848,9.844A32.637,32.637,0,0,0,306.71-45.469Z" transform="translate(1024 -294)"/>
    <text id="Text_of_the_sample_logo." data-name="Text of the sample logo." transform="translate(1035 -224)" font-size="50" font-family="Futura-Medium, Futura" font-weight="500" letter-spacing="0.05em"><tspan x="0" y="0">Text of the sample logo.</tspan></text>
  </g>
</svg>
